<svg id="Layer_1" data-name="Layer 1" xmlns="http://www.w3.org/2000/svg" viewBox="0 0 81.53 17.95"><defs><style>.cls-1{fill:#fff;}.cls-2{fill:#2b358b;}</style></defs><title>Untitled-2</title><path class="cls-1" d="M29.27,16.41h2.89v1.32H27.55V9.11h1.72Z" transform="translate(-7.59 -4.48)"/><path class="cls-1" d="M39.42,9.55A4,4,0,0,1,41,11.12a4.53,4.53,0,0,1,.57,2.27A4.6,4.6,0,0,1,41,15.68a4,4,0,0,1-1.55,1.57,4.3,4.3,0,0,1-2.19.56A4.25,4.25,0,0,1,35,17.25a4,4,0,0,1-1.55-1.57,4.6,4.6,0,0,1-.57-2.29,4.53,4.53,0,0,1,.57-2.27A3.9,3.9,0,0,1,35,9.55,4.26,4.26,0,0,1,37.23,9,4.31,4.31,0,0,1,39.42,9.55ZM35.9,10.91a2.34,2.34,0,0,0-.9,1,3.18,3.18,0,0,0-.32,1.49,3.25,3.25,0,0,0,.32,1.5,2.31,2.31,0,0,0,.9,1,2.77,2.77,0,0,0,2.66,0,2.38,2.38,0,0,0,.9-1,3.38,3.38,0,0,0,.32-1.5,3.31,3.31,0,0,0-.32-1.49,2.41,2.41,0,0,0-.9-1,2.63,2.63,0,0,0-1.33-.34A2.6,2.6,0,0,0,35.9,10.91Z" transform="translate(-7.59 -4.48)"/><path class="cls-1" d="M44.49,16.34h4v1.39H42.59V16.41l3.93-5.92H42.65V9.11h5.81v1.32Z" transform="translate(-7.59 -4.48)"/><path class="cls-1" d="M51.55,14.53v3.2H49.83V9.11H53a3.24,3.24,0,0,1,2.3.73,2.59,2.59,0,0,1,.77,2,2.53,2.53,0,0,1-.8,2,3.28,3.28,0,0,1-2.27.73Zm2.75-2.7a1.31,1.31,0,0,0-.36-1,1.61,1.61,0,0,0-1.16-.34H51.55v2.65h1.23C53.79,13.15,54.3,12.71,54.3,11.83Z" transform="translate(-7.59 -4.48)"/><path class="cls-1" d="M64.21,15.66a3.67,3.67,0,0,1-1.55,1.52,5,5,0,0,1-2.43.55H57.17V9.11h3.06a5.13,5.13,0,0,1,2.43.53,3.62,3.62,0,0,1,1.55,1.5,4.59,4.59,0,0,1,.54,2.27A4.57,4.57,0,0,1,64.21,15.66Zm-2-.2A2.72,2.72,0,0,0,63,13.41a2.73,2.73,0,0,0-.76-2.07,3,3,0,0,0-2.15-.73h-1.2v5.58h1.2A3,3,0,0,0,62.24,15.46Z" transform="translate(-7.59 -4.48)"/><path class="cls-1" d="M71.29,16H67.84l-.61,1.74H65.41L68.58,9.2h2l3.16,8.53H71.89Zm-.46-1.3-1.27-3.64-1.27,3.64Z" transform="translate(-7.59 -4.48)"/><path class="cls-1" d="M80.5,9.11v1.36H78.12v7.26H76.4V10.47H74V9.11Z" transform="translate(-7.59 -4.48)"/><path class="cls-1" d="M86.7,16H83.25l-.61,1.74H80.82L84,9.2h2l3.16,8.53H87.3Zm-.46-1.3L85,11.05,83.7,14.69Z" transform="translate(-7.59 -4.48)"/><path class="cls-2" d="M9.85,15" transform="translate(-7.59 -4.48)"/><path class="cls-2" d="M10.67,7.32" transform="translate(-7.59 -4.48)"/><path class="cls-1" d="M11.11,7.91h0A7.92,7.92,0,1,1,15.5,22.43a7.79,7.79,0,0,1-3.17-.66,6.59,6.59,0,0,0,7.52-4.35h0a.14.14,0,0,0,0-.06,5.9,5.9,0,0,0,.23-.92v0h0a6.35,6.35,0,0,0-.46-3.61A4.4,4.4,0,0,0,15.57,10" transform="translate(-7.59 -4.48)"/><path class="cls-1" d="M8.22,17.71a8,8,0,0,1-.63-3.11c0-.16,0-.32,0-.49V4.48l2.73,3.73v.17l.23,6.21h0c0,2.48,2.47,4.49,4.95,4.49A4.5,4.5,0,0,0,19,17.41a5.87,5.87,0,0,1-1.5,2.22c-3.06,2.71-7.6,2.05-9.3-1.92Z" transform="translate(-7.59 -4.48)"/></svg>