<svg id="Layer_1" data-name="Layer 1" xmlns="http://www.w3.org/2000/svg" viewBox="0 0 87.3 19.22"><defs><style>.cls-1{fill:#0099cb;}.cls-2{fill:#2b358b;}</style></defs><title>Untitled-5</title><path className="cls-1" d="M28.58,16.94h3.1v1.41H26.74V9.12h1.84Z" transform="translate(-5.37 -4.17)"/><path className="cls-1" d="M39.45,9.59a4.32,4.32,0,0,1,1.66,1.68,4.83,4.83,0,0,1,.61,2.44,4.86,4.86,0,0,1-.61,2.44,4.35,4.35,0,0,1-1.66,1.69,4.88,4.88,0,0,1-4.69,0,4.28,4.28,0,0,1-1.66-1.69,4.86,4.86,0,0,1-.61-2.44,4.83,4.83,0,0,1,.61-2.44,4.26,4.26,0,0,1,1.66-1.68,4.88,4.88,0,0,1,4.69,0Zm-3.77,1.46a2.57,2.57,0,0,0-1,1,3.57,3.57,0,0,0-.35,1.61,3.52,3.52,0,0,0,.35,1.6,2.45,2.45,0,0,0,1,1,2.76,2.76,0,0,0,1.42.37,2.79,2.79,0,0,0,1.43-.37,2.45,2.45,0,0,0,1-1,3.52,3.52,0,0,0,.35-1.6,3.57,3.57,0,0,0-.35-1.61,2.57,2.57,0,0,0-1-1,2.79,2.79,0,0,0-1.43-.36A2.75,2.75,0,0,0,35.68,11.05Z" transform="translate(-5.37 -4.17)"/><path className="cls-1" d="M44.88,16.86h4.3v1.49H42.84V16.94l4.21-6.35H42.91V9.12h6.22v1.41Z" transform="translate(-5.37 -4.17)"/><path className="cls-1" d="M52.44,14.92v3.43H50.6V9.12H54a3.46,3.46,0,0,1,2.46.78A2.79,2.79,0,0,1,57.25,12a2.71,2.71,0,0,1-.86,2.11,3.48,3.48,0,0,1-2.43.78ZM55.38,12A1.39,1.39,0,0,0,55,11a1.75,1.75,0,0,0-1.24-.36H52.44v2.83h1.32Q55.38,13.44,55.38,12Z" transform="translate(-5.37 -4.17)"/><path className="cls-1" d="M66,16.14a4,4,0,0,1-1.67,1.63,5.53,5.53,0,0,1-2.59.58H58.45V9.12h3.29a5.53,5.53,0,0,1,2.59.57A3.91,3.91,0,0,1,66,11.29a5,5,0,0,1,.57,2.43A5,5,0,0,1,66,16.14Zm-2.11-.22a2.94,2.94,0,0,0,.81-2.2,2.93,2.93,0,0,0-.81-2.21,3.23,3.23,0,0,0-2.31-.79H60.3v6h1.28A3.23,3.23,0,0,0,63.89,15.92Z" transform="translate(-5.37 -4.17)"/><path className="cls-1" d="M73.58,16.49h-3.7l-.65,1.86h-2l3.4-9.13h2.1l3.39,9.13h-2Zm-.5-1.4L71.72,11.2l-1.35,3.89Z" transform="translate(-5.37 -4.17)"/><path className="cls-1" d="M83.44,9.12v1.46H80.89v7.77H79.05V10.58H76.51V9.12Z" transform="translate(-5.37 -4.17)"/><path className="cls-1" d="M90.08,16.49h-3.7l-.65,1.86h-2l3.4-9.13h2.1l3.39,9.13h-2Zm-.5-1.4L88.23,11.2l-1.36,3.89Z" transform="translate(-5.37 -4.17)"/><path className="cls-2" d="M7.79,15.44" transform="translate(-5.37 -4.17)"/><path className="cls-2" d="M8.67,7.2" transform="translate(-5.37 -4.17)"/><path className="cls-1" d="M9.14,7.84h0a8.39,8.39,0,0,1,4.69-1.42,8.49,8.49,0,1,1-3.39,16.26A7.06,7.06,0,0,0,18.5,18h0a.64.64,0,0,1,0-.07,6.71,6.71,0,0,0,.25-1v0h0a6.72,6.72,0,0,0-.49-3.87,4.69,4.69,0,0,0-4.37-3" transform="translate(-5.37 -4.17)"/><path className="cls-1" d="M6.05,18.33A8.4,8.4,0,0,1,5.37,15a4.52,4.52,0,0,1,0-.52V4.17l2.92,4v.19L8.56,15v0c0,2.66,2.64,4.81,5.29,4.81A4.81,4.81,0,0,0,17.61,18,6.56,6.56,0,0,1,16,20.39c-3.28,2.89-8.14,2.19-9.95-2.06Z" transform="translate(-5.37 -4.17)"/></svg>